<svg width="50.000000" height="50.000000" viewBox="0 0 50 50" fill="none" xmlns="http://www.w3.org/2000/svg" xmlns:xlink="http://www.w3.org/1999/xlink">
	<desc>
			Created with Pixso.
	</desc>
	<defs>
		<clipPath id="clip77_147">
			<rect id="instagram 3" rx="25.000000" width="50.000000" height="50.000000" fill="white" fill-opacity="0"/>
		</clipPath>
		<clipPath id="clip83_195">
			<rect id="Frame 2" width="50.000000" height="50.000000" fill="white" fill-opacity="0"/>
		</clipPath>
		<linearGradient x1="-0.105782" y1="50.221310" x2="50.292740" y2="-0.161137" id="paint_linear_77_148_0" gradientUnits="userSpaceOnUse">
			<stop stop-color="#FFDD55"/>
			<stop offset="0.500000" stop-color="#FF543E"/>
			<stop offset="1.000000" stop-color="#C837AB"/>
		</linearGradient>
	</defs>
	<g clip-path="url(#clip83_195)">
		<rect id="instagram 3" rx="25.000000" width="50.000000" height="50.000000" fill="#FFFFFF" fill-opacity="0"/>
		<g clip-path="url(#clip77_147)">
			<path id="Vector" d="M-0.22 0.02C-4.77 4.74 -3.84 9.76 -3.84 24.99C-3.84 37.64 -6.04 50.31 5.51 53.3C9.12 54.23 41.08 54.23 44.68 53.3C49.49 52.05 53.4 48.15 53.94 41.35C54.01 40.4 54.01 9.59 53.94 8.62C53.37 1.37 48.91 -2.8 43.03 -3.65C41.68 -3.84 41.41 -3.9 34.5 -3.91C9.99 -3.9 4.61 -4.99 -0.22 0.02Z" fill="url(#paint_linear_77_148_0)" fill-opacity="1.000000" fill-rule="nonzero"/>
			<rect id="Rectangle 5" rx="25.000000" width="51.000000" height="50.000000" fill="#FFFFFF" fill-opacity="0.850000"/>
			<path id="Vector" d="M25 8.01C18.03 8.01 11.42 7.39 8.89 13.87C7.85 16.54 8 20.02 8 24.99C8 29.36 7.86 33.46 8.89 36.11C11.41 42.59 18.08 41.97 24.99 41.97C31.66 41.97 38.53 42.67 41.09 36.11C42.14 33.41 41.98 29.99 41.98 24.99C41.98 18.36 42.35 14.08 39.13 10.86C35.87 7.6 31.46 8.01 24.99 8.01L25 8.01ZM23.47 11.07C38 11.05 39.85 9.44 38.83 31.85C38.46 39.78 32.42 38.91 25 38.91C11.46 38.91 11.07 38.52 11.07 24.99C11.07 11.29 12.14 11.08 23.47 11.07L23.47 11.07ZM34.07 13.89C32.94 13.89 32.03 14.8 32.03 15.93C32.03 17.05 32.94 17.96 34.07 17.96C35.19 17.96 36.1 17.05 36.1 15.93C36.1 14.8 35.19 13.89 34.07 13.89ZM25 16.27C20.18 16.27 16.27 20.18 16.27 24.99C16.27 29.81 20.18 33.71 25 33.71C29.81 33.71 33.72 29.81 33.72 24.99C33.72 20.18 29.81 16.27 25 16.27ZM25 19.33C32.48 19.33 32.49 30.65 25 30.65C17.51 30.65 17.5 19.33 25 19.33Z" fill="#FFFFFF" fill-opacity="1.000000" fill-rule="nonzero"/>
		</g>
	</g>
</svg>
