<svg width="30.000000" height="30.000000" viewBox="0 0 30 30" fill="none" xmlns="http://www.w3.org/2000/svg" xmlns:xlink="http://www.w3.org/1999/xlink">
	<desc>
			Created with Pixso.
	</desc>
	<defs>
		<clipPath id="clip7_932">
			<rect id="Вок" width="30.000000" height="30.000000" fill="white" fill-opacity="0"/>
		</clipPath>
	</defs>
	<rect id="Вок" width="30.000000" height="30.000000" fill="#FFFFFF" fill-opacity="0"/>
	<g clip-path="url(#clip7_932)">
		<path id="Vector" d="M13.49 3.15C14.34 3.15 15.04 2.45 15.04 1.59C15.04 0.73 14.34 0.03 13.49 0.03C13.25 0.03 13.1 0.19 13.1 0.42C13.1 0.66 13.25 0.81 13.49 0.81C13.91 0.81 14.26 1.16 14.26 1.59C14.26 2.02 13.91 2.37 13.49 2.37C12.63 2.37 11.93 3.07 11.93 3.92C11.89 4.78 12.59 5.48 13.49 5.48C13.72 5.48 13.87 5.33 13.87 5.09C13.87 4.86 13.72 4.7 13.49 4.7C13.06 4.7 12.71 4.35 12.71 3.92C12.71 3.5 13.06 3.15 13.49 3.15Z" fill="#A4ACAD" fill-opacity="1.000000" fill-rule="nonzero"/>
		<path id="Vector" d="M16.56 3.11C17.42 3.11 18.12 2.41 18.12 1.55C18.12 0.7 17.42 0 16.56 0C16.33 0 16.17 0.15 16.17 0.38C16.17 0.62 16.33 0.77 16.56 0.77C16.99 0.77 17.34 1.12 17.34 1.55C17.34 1.98 16.99 2.33 16.56 2.33C15.7 2.33 15 3.03 15 3.89C15 4.74 15.7 5.44 16.56 5.44C16.79 5.44 16.95 5.29 16.95 5.05C16.95 4.82 16.79 4.66 16.56 4.66C16.13 4.66 15.78 4.31 15.78 3.89C15.78 3.46 16.13 3.11 16.56 3.11Z" fill="#A4ACAD" fill-opacity="1.000000" fill-rule="nonzero"/>
		<path id="Vector" d="M26.95 5.05C26.75 4.98 26.52 5.05 26.44 5.29L24.15 11.01L23.68 11.01L21.15 7.15C21.07 7.04 20.96 6.96 20.84 6.96L9.4 6.96C9.28 6.96 9.17 7 9.09 7.12L6.21 10.97L5.86 10.97L3.56 5.25C3.49 5.05 3.25 4.94 3.06 5.01C2.86 5.09 2.75 5.33 2.82 5.52L5.2 11.43L6.52 29.22C6.52 29.29 6.52 29.33 6.52 29.37L6.52 29.64C6.52 29.84 6.72 30 6.91 30L23.1 30C23.29 30 23.49 29.84 23.49 29.64L24.77 11.47L27.14 5.56C27.26 5.33 27.14 5.13 26.95 5.05ZM9.59 7.74L20.65 7.74L22.75 11.01L7.18 11.01L9.59 7.74ZM23.72 11.78L15 20.81L6.25 11.78L23.72 11.78ZM6.05 12.72L14.42 21.4L7.22 28.4L6.05 12.72ZM7.49 29.22L14.96 21.94L22.2 29.22L7.49 29.22ZM22.79 28.75L15.55 21.36L23.95 12.64L22.79 28.75Z" fill="#A4ACAD" fill-opacity="1.000000" fill-rule="nonzero"/>
	</g>
</svg>
