<svg width="29.999977" height="27.773300" viewBox="0 0 30 27.7733" fill="none" xmlns="http://www.w3.org/2000/svg" xmlns:xlink="http://www.w3.org/1999/xlink">
	<desc>
			Created with Pixso.
	</desc>
	<defs/>
	<path id="Vector" d="M29.1 10.46C29.03 10.34 28.95 10.23 28.83 10.19C28.95 10.03 29.03 9.8 28.99 9.6C28.95 8.75 28.56 7 26.65 4.82C24.71 2.64 23 2.06 22.18 1.9C22.02 1.86 21.91 1.9 21.79 1.9C21.75 1.71 21.64 1.51 21.48 1.4C20.82 0.85 19.26 0 16.35 0C13.43 0 11.87 0.89 11.17 1.4C10.82 1.67 10.7 2.1 10.9 2.48L11.52 3.92L15.41 13.34C15.41 13.38 15.45 13.41 15.49 13.45C15.41 13.41 15.29 13.41 15.18 13.41L4.95 14.31L3.39 14.43C2.96 14.47 2.61 14.78 2.54 15.2C2.38 16.06 2.34 17.85 3.74 20.38C5.1 22.94 6.66 23.88 7.44 24.23C7.55 24.27 7.67 24.31 7.83 24.31C7.83 24.31 7.83 24.31 7.87 24.31C7.87 24.5 7.94 24.7 8.06 24.89C8.6 25.55 9.89 26.8 12.73 27.46C13.74 27.69 14.59 27.77 15.33 27.77C16.66 27.77 17.55 27.5 18.06 27.26C18.17 27.22 18.29 27.11 18.37 27.03C18.52 27.15 18.72 27.26 18.91 27.26C18.99 27.26 19.07 27.26 19.15 27.26C20.08 27.26 21.75 26.99 23.89 25.47C26.26 23.8 27.04 22.17 27.31 21.35C27.35 21.23 27.35 21.08 27.35 20.96C27.55 20.92 27.74 20.84 27.9 20.69C28.52 20.07 29.57 18.63 29.88 15.75C30.27 12.87 29.57 11.2 29.1 10.46ZM21.83 2.76C21.87 2.68 21.95 2.64 21.99 2.68C22.72 2.83 24.28 3.34 26.03 5.32C27.78 7.31 28.13 8.86 28.17 9.64C28.17 9.72 28.13 9.76 28.05 9.8L27.43 10.03C27.35 9.25 26.96 7.77 25.37 5.95C23.77 4.12 22.3 3.57 21.52 3.42L21.83 2.76ZM27.47 15.48C27.2 17.85 26.3 18.98 25.91 19.37C25.88 19.41 25.84 19.41 25.8 19.37L21.25 16.72L17.24 14.19L21.79 12.68L26.73 11.28C26.77 11.28 26.81 11.28 26.85 11.31C27.16 11.78 27.74 13.1 27.47 15.48ZM21.29 4.16C21.79 4.23 23.19 4.66 24.82 6.49C26.42 8.28 26.65 9.72 26.69 10.23C26.69 10.26 26.65 10.3 26.61 10.3L21.6 11.94L17.05 13.22L18.95 8.82L21.21 4.2C21.21 4.16 21.25 4.16 21.29 4.16ZM11.56 2.21C11.52 2.13 11.56 2.06 11.6 2.02C12.22 1.55 13.62 0.77 16.27 0.77C18.91 0.77 20.31 1.55 20.9 2.02C20.94 2.06 20.97 2.13 20.94 2.21L20.66 2.83C20 2.37 18.68 1.67 16.27 1.67C13.86 1.67 12.46 2.37 11.83 2.83L11.56 2.21ZM12.18 3.65C12.18 3.61 12.18 3.57 12.22 3.53C12.65 3.22 13.89 2.45 16.31 2.45C18.64 2.45 19.85 3.11 20.35 3.53C20.39 3.57 20.39 3.61 20.39 3.65L18.29 8.51L16.11 13.03L12.18 3.65ZM16.19 13.92C16.19 13.96 16.19 13.96 16.19 14C16.19 14 16.15 14 16.11 14.04C16.07 14.04 16.07 14.04 16.03 14C16.03 13.96 16.03 13.92 16 13.88L15.96 13.84C16 13.84 16.07 13.88 16.11 13.88C16.15 13.92 16.15 13.92 16.19 13.92ZM15.72 15.09L16.7 19.79L17.51 24.85C17.51 24.89 17.51 24.93 17.47 24.97C17.01 25.2 15.61 25.63 13.27 25.08C10.94 24.54 9.93 23.53 9.58 23.1C9.54 23.06 9.54 23.02 9.58 22.98L12.73 18.74L15.72 15.09ZM7.94 23.49C7.9 23.53 7.83 23.57 7.75 23.53C7.2 23.3 5.73 22.44 4.4 19.99C3.16 17.65 3.16 16.06 3.31 15.32C3.31 15.24 3.39 15.2 3.47 15.2L4.17 15.17C4.05 15.94 4.09 17.5 5.22 19.6C6.39 21.74 7.63 22.59 8.37 22.94L7.94 23.49ZM5.88 19.25C4.75 17.15 4.83 15.71 4.91 15.17C4.91 15.13 4.95 15.09 4.99 15.09L15.18 14.23C15.14 14.27 15.1 14.27 15.1 14.31L12.14 18.28L8.92 22.28C8.88 22.32 8.84 22.32 8.8 22.32C8.29 22.09 7.05 21.35 5.88 19.25ZM17.71 26.56C17.16 26.83 15.57 27.34 12.84 26.72C10.24 26.1 9.07 25.01 8.6 24.42C8.57 24.38 8.57 24.31 8.6 24.23L9.03 23.68C9.54 24.31 10.7 25.28 13.04 25.82C13.93 26.02 14.67 26.1 15.33 26.1C16.42 26.1 17.16 25.86 17.63 25.67L17.75 26.37C17.82 26.48 17.78 26.56 17.71 26.56ZM18.52 24.81L17.47 19.64L16.7 14.97L20.86 17.38L25.18 20.14C25.21 20.18 25.21 20.22 25.21 20.26C25.06 20.77 24.47 22.09 22.49 23.49C20.51 24.85 19.11 24.97 18.56 24.93C18.56 24.89 18.52 24.89 18.52 24.81ZM23.46 24.85C21.29 26.37 19.69 26.52 18.95 26.48C18.87 26.48 18.83 26.45 18.8 26.37L18.68 25.67C18.72 25.67 18.72 25.67 18.76 25.67C19.57 25.67 21.05 25.43 22.96 24.11C24.94 22.71 25.68 21.35 25.91 20.61L26.5 20.96C26.58 21 26.58 21.08 26.58 21.16C26.42 21.74 25.76 23.26 23.46 24.85ZM29.14 15.67C28.83 18.32 27.9 19.6 27.35 20.14C27.31 20.18 27.24 20.22 27.16 20.18L26.58 19.83C27.12 19.25 27.98 17.97 28.25 15.59C28.52 13.18 27.98 11.74 27.59 11.04L28.25 10.85C28.33 10.81 28.4 10.85 28.44 10.93C28.83 11.55 29.45 13.03 29.14 15.67Z" fill="#A4ACAD" fill-opacity="1.000000" fill-rule="nonzero"/>
	<path id="Vector" d="M17.94 3.26C17.16 3.26 16.54 3.88 16.54 4.66C16.54 5.44 17.16 6.06 17.94 6.06C18.72 6.06 19.34 5.44 19.34 4.66C19.34 3.88 18.72 3.26 17.94 3.26ZM17.94 5.32C17.59 5.32 17.32 5.05 17.32 4.7C17.32 4.35 17.59 4.08 17.94 4.08C18.29 4.08 18.56 4.35 18.56 4.7C18.56 5.05 18.29 5.32 17.94 5.32Z" fill="#A4ACAD" fill-opacity="1.000000" fill-rule="nonzero"/>
	<path id="Vector" d="M16.11 6.49C15.37 6.49 14.79 7.07 14.79 7.81C14.79 8.55 15.37 9.14 16.11 9.14C16.85 9.14 17.43 8.55 17.43 7.81C17.43 7.07 16.85 6.49 16.11 6.49ZM16.07 8.36C15.76 8.36 15.53 8.12 15.53 7.81C15.53 7.5 15.76 7.27 16.07 7.27C16.38 7.27 16.62 7.5 16.62 7.81C16.62 8.12 16.38 8.36 16.07 8.36Z" fill="#A4ACAD" fill-opacity="1.000000" fill-rule="nonzero"/>
	<path id="Vector" d="M23.04 6.45C22.61 5.99 21.87 5.95 21.4 6.37C21.17 6.57 21.05 6.88 21.01 7.15C21.01 7.46 21.09 7.77 21.29 7.97C21.48 8.24 21.79 8.4 22.1 8.4C22.14 8.4 22.14 8.4 22.18 8.4C22.45 8.4 22.72 8.28 22.96 8.09C23.42 7.66 23.46 6.92 23.04 6.45ZM22.37 7.58C22.3 7.66 22.22 7.7 22.1 7.66C21.99 7.66 21.91 7.62 21.83 7.54C21.75 7.46 21.71 7.39 21.75 7.27C21.79 7.15 21.83 7.04 21.91 7C21.99 6.92 22.06 6.92 22.14 6.92C22.26 6.92 22.34 6.96 22.41 7.04C22.57 7.19 22.53 7.42 22.37 7.58Z" fill="#A4ACAD" fill-opacity="1.000000" fill-rule="nonzero"/>
	<path id="Vector" d="M26.19 15.98C25.91 15.71 25.6 15.52 25.25 15.48C24.51 15.4 23.81 15.94 23.74 16.68C23.66 17.42 24.2 18.12 24.94 18.2C24.98 18.2 25.06 18.2 25.1 18.2C25.8 18.2 26.38 17.69 26.46 16.99C26.5 16.64 26.38 16.25 26.19 15.98ZM25.02 17.46C24.67 17.42 24.44 17.11 24.47 16.8C24.51 16.45 24.82 16.22 25.14 16.25C25.29 16.25 25.45 16.37 25.53 16.49C25.6 16.6 25.68 16.76 25.68 16.92C25.64 17.27 25.33 17.5 25.02 17.46Z" fill="#A4ACAD" fill-opacity="1.000000" fill-rule="nonzero"/>
	<path id="Vector" d="M26.54 12.48C26.38 12.25 26.11 12.09 25.8 12.05C25.49 12.01 25.18 12.09 24.94 12.29C24.71 12.48 24.55 12.75 24.51 13.06C24.47 13.38 24.55 13.69 24.75 13.92C24.94 14.15 25.21 14.31 25.53 14.35C25.56 14.35 25.6 14.35 25.64 14.35C25.91 14.35 26.15 14.27 26.34 14.12C26.58 13.92 26.73 13.65 26.77 13.34C26.81 13.03 26.73 12.71 26.54 12.48ZM25.88 13.49C25.8 13.57 25.68 13.57 25.6 13.57C25.49 13.57 25.41 13.49 25.37 13.41C25.29 13.34 25.29 13.22 25.29 13.14C25.29 13.03 25.37 12.95 25.45 12.91C25.53 12.83 25.64 12.83 25.72 12.83C25.84 12.83 25.91 12.91 25.95 12.99C25.99 13.06 26.03 13.18 26.03 13.26C26.03 13.34 25.95 13.45 25.88 13.49Z" fill="#A4ACAD" fill-opacity="1.000000" fill-rule="nonzero"/>
	<path id="Vector" d="M20.7 18.2C20.47 17.89 20.2 17.69 19.85 17.65C19.5 17.58 19.15 17.65 18.83 17.89C18.25 18.32 18.1 19.13 18.52 19.76C18.76 20.11 19.18 20.3 19.61 20.3C19.88 20.3 20.16 20.22 20.39 20.07C20.7 19.87 20.9 19.56 20.94 19.21C21.01 18.86 20.94 18.51 20.7 18.2ZM20.16 19.09C20.12 19.25 20.04 19.37 19.92 19.44C19.69 19.64 19.34 19.56 19.15 19.29C18.99 19.06 19.03 18.7 19.3 18.51C19.53 18.35 19.88 18.39 20.08 18.67C20.16 18.78 20.2 18.94 20.16 19.09Z" fill="#A4ACAD" fill-opacity="1.000000" fill-rule="nonzero"/>
	<path id="Vector" d="M15.18 21.62C14.87 21.54 14.56 21.58 14.32 21.78C14.05 21.93 13.89 22.21 13.82 22.48C13.62 23.1 14.01 23.72 14.63 23.88C14.71 23.92 14.83 23.92 14.91 23.92C15.41 23.92 15.92 23.57 16.03 23.02C16.19 22.4 15.8 21.78 15.18 21.62ZM15.22 22.87C15.18 23.06 14.98 23.18 14.75 23.14C14.63 23.1 14.56 23.06 14.52 22.98C14.48 22.91 14.52 22.79 14.52 22.67C14.56 22.56 14.59 22.48 14.67 22.44C14.75 22.4 14.79 22.4 14.87 22.4C14.91 22.4 14.94 22.4 14.94 22.4C15.14 22.44 15.26 22.63 15.22 22.87Z" fill="#A4ACAD" fill-opacity="1.000000" fill-rule="nonzero"/>
	<path id="Vector" d="M8.29 16.06C7.94 15.4 7.09 15.13 6.43 15.52C5.76 15.87 5.49 16.72 5.88 17.38C6.11 17.85 6.62 18.12 7.09 18.12C7.32 18.12 7.52 18.08 7.75 17.97C8.41 17.58 8.64 16.72 8.29 16.06ZM7.36 17.27C7.05 17.42 6.7 17.3 6.54 17.03C6.39 16.72 6.5 16.37 6.78 16.22C7.09 16.06 7.44 16.18 7.59 16.45C7.75 16.72 7.63 17.11 7.36 17.27Z" fill="#A4ACAD" fill-opacity="1.000000" fill-rule="nonzero"/>
	<path id="Vector" d="M11.87 16.22C11.72 15.9 11.41 15.67 11.09 15.55C10.74 15.44 10.39 15.48 10.08 15.67C9.77 15.83 9.54 16.14 9.42 16.45C9.3 16.8 9.34 17.15 9.54 17.46C9.69 17.81 9.97 18.04 10.32 18.12C10.43 18.16 10.59 18.16 10.7 18.16C10.94 18.16 11.13 18.12 11.33 18C11.64 17.85 11.87 17.54 11.99 17.23C12.11 16.88 12.07 16.53 11.87 16.22ZM10.94 17.34C10.82 17.42 10.67 17.42 10.51 17.38C10.35 17.34 10.24 17.23 10.2 17.11C10.16 16.99 10.12 16.84 10.16 16.68C10.2 16.53 10.32 16.41 10.43 16.37C10.55 16.29 10.7 16.29 10.86 16.33C11.02 16.37 11.13 16.49 11.17 16.6C11.33 16.88 11.21 17.23 10.94 17.34Z" fill="#A4ACAD" fill-opacity="1.000000" fill-rule="nonzero"/>
	<path id="Vector" d="M13.31 10.77L7.05 2.68L6.08 1.43C5.8 1.08 5.38 0.97 4.99 1.16C4.21 1.51 2.69 2.45 1.29 4.97C-0.11 7.5 -0.07 9.33 0.05 10.19C0.12 10.61 0.44 10.93 0.86 10.96L2.42 11.08L12.53 12.17C12.61 12.17 12.65 12.17 12.65 12.17C12.96 12.17 13.23 12.01 13.39 11.74C13.54 11.43 13.54 11.08 13.31 10.77ZM1.64 10.26L0.98 10.19C0.9 10.19 0.86 10.11 0.82 10.07C0.71 9.33 0.71 7.7 1.95 5.36C3.24 3.03 4.6 2.17 5.26 1.9C5.34 1.86 5.41 1.9 5.45 1.94L5.88 2.48C5.14 2.83 3.9 3.69 2.73 5.79C1.56 7.93 1.52 9.45 1.64 10.26ZM12.77 11.35C12.73 11.39 12.73 11.39 12.69 11.39L2.58 10.3C2.5 10.3 2.46 10.26 2.46 10.23C2.38 9.68 2.3 8.24 3.47 6.14C4.64 4.04 5.88 3.34 6.35 3.11C6.39 3.11 6.43 3.11 6.46 3.15L12.77 11.24C12.81 11.28 12.81 11.31 12.77 11.35Z" fill="#A4ACAD" fill-opacity="1.000000" fill-rule="nonzero"/>
	<path id="Vector" d="M7.52 5.36C7.4 5.01 7.17 4.7 6.85 4.55C6.54 4.35 6.15 4.31 5.8 4.43C5.45 4.55 5.14 4.78 4.99 5.09C4.79 5.4 4.75 5.79 4.87 6.14C4.99 6.49 5.22 6.8 5.53 7C5.73 7.11 5.96 7.15 6.19 7.15C6.7 7.15 7.17 6.88 7.4 6.41C7.59 6.1 7.63 5.71 7.52 5.36ZM6.7 6.06C6.54 6.37 6.15 6.45 5.88 6.3C5.73 6.22 5.65 6.1 5.61 5.95C5.57 5.79 5.61 5.64 5.69 5.48C5.76 5.32 5.88 5.25 6.04 5.21C6.08 5.21 6.15 5.17 6.19 5.17C6.31 5.17 6.39 5.21 6.46 5.25C6.62 5.32 6.7 5.44 6.74 5.6C6.78 5.75 6.78 5.91 6.7 6.06Z" fill="#A4ACAD" fill-opacity="1.000000" fill-rule="nonzero"/>
	<path id="Vector" d="M8.14 8.12C7.59 7.74 6.89 7.93 6.58 8.51C6.43 8.79 6.39 9.1 6.5 9.41C6.58 9.72 6.78 9.95 7.05 10.11C7.2 10.19 7.4 10.26 7.59 10.26C7.71 10.26 7.83 10.26 7.9 10.23C8.22 10.15 8.45 9.95 8.6 9.68C8.92 9.14 8.72 8.44 8.14 8.12ZM7.94 9.21C7.83 9.41 7.63 9.45 7.44 9.37C7.36 9.33 7.28 9.25 7.24 9.14C7.2 9.02 7.24 8.94 7.28 8.86C7.32 8.79 7.4 8.71 7.52 8.67C7.52 8.71 7.55 8.67 7.59 8.67C7.67 8.67 7.71 8.67 7.79 8.71C7.98 8.82 8.02 9.02 7.94 9.21Z" fill="#A4ACAD" fill-opacity="1.000000" fill-rule="nonzero"/>
	<path id="Vector" d="M4.83 8.67L4.36 7.7C4.29 7.5 4.05 7.42 3.86 7.5C3.66 7.58 3.59 7.81 3.66 8.01L4.13 8.98C4.21 9.14 4.33 9.21 4.48 9.21C4.52 9.21 4.6 9.21 4.64 9.17C4.83 9.1 4.91 8.86 4.83 8.67Z" fill="#A4ACAD" fill-opacity="1.000000" fill-rule="nonzero"/>
	<path id="Vector" d="M15.1 5.52L14.63 4.55C14.56 4.35 14.32 4.27 14.13 4.35C13.93 4.43 13.86 4.66 13.93 4.86L14.4 5.83C14.48 5.99 14.59 6.06 14.75 6.06C14.79 6.06 14.87 6.06 14.91 6.02C15.1 5.95 15.22 5.71 15.1 5.52Z" fill="#A4ACAD" fill-opacity="1.000000" fill-rule="nonzero"/>
	<path id="Vector" d="M21.95 10.38L21.48 9.41C21.4 9.21 21.17 9.14 20.97 9.21C20.78 9.29 20.7 9.53 20.78 9.72L21.25 10.69C21.32 10.85 21.44 10.93 21.6 10.93C21.64 10.93 21.71 10.93 21.75 10.89C21.95 10.81 22.02 10.58 21.95 10.38Z" fill="#A4ACAD" fill-opacity="1.000000" fill-rule="nonzero"/>
	<path id="Vector" d="M12.61 23.06L12.14 22.09C12.07 21.89 11.83 21.82 11.64 21.89C11.44 21.97 11.37 22.21 11.44 22.4L11.91 23.37C11.99 23.53 12.11 23.61 12.26 23.61C12.3 23.61 12.38 23.61 12.42 23.57C12.61 23.49 12.69 23.26 12.61 23.06Z" fill="#A4ACAD" fill-opacity="1.000000" fill-rule="nonzero"/>
	<path id="Vector" d="M20.59 22.21L19.5 22.01C19.3 21.97 19.07 22.13 19.03 22.32C18.99 22.52 19.15 22.75 19.34 22.79L20.43 22.98C20.47 22.98 20.47 22.98 20.51 22.98C20.7 22.98 20.86 22.87 20.9 22.67C20.97 22.44 20.82 22.24 20.59 22.21Z" fill="#A4ACAD" fill-opacity="1.000000" fill-rule="nonzero"/>
	<path id="Vector" d="M22.37 14.93L21.29 14.74C21.09 14.7 20.86 14.85 20.82 15.05C20.78 15.24 20.94 15.48 21.13 15.52L22.22 15.71C22.26 15.71 22.26 15.71 22.3 15.71C22.49 15.71 22.65 15.59 22.69 15.4C22.72 15.2 22.57 14.97 22.37 14.93Z" fill="#A4ACAD" fill-opacity="1.000000" fill-rule="nonzero"/>
	<path id="Vector" d="M25.06 8.86L23.97 8.67C23.77 8.63 23.54 8.79 23.5 8.98C23.46 9.21 23.62 9.41 23.81 9.45L24.9 9.64C24.94 9.64 24.94 9.64 24.98 9.64C25.18 9.64 25.33 9.53 25.37 9.33C25.41 9.14 25.25 8.9 25.06 8.86Z" fill="#A4ACAD" fill-opacity="1.000000" fill-rule="nonzero"/>
	<path id="Vector" d="M15.1 19.68L14.63 18.7C14.56 18.51 14.32 18.43 14.13 18.51C13.93 18.59 13.86 18.82 13.93 19.02L14.4 19.99C14.48 20.14 14.59 20.22 14.75 20.22C14.79 20.22 14.87 20.22 14.91 20.18C15.1 20.11 15.18 19.87 15.1 19.68Z" fill="#A4ACAD" fill-opacity="1.000000" fill-rule="nonzero"/>
	<path id="Vector" d="M9.07 19.17C8.95 19.02 8.68 18.98 8.53 19.13L7.67 19.83C7.52 19.95 7.48 20.22 7.63 20.38C7.71 20.46 7.83 20.53 7.94 20.53C8.02 20.53 8.1 20.49 8.18 20.46L9.03 19.76C9.19 19.6 9.23 19.37 9.07 19.17Z" fill="#A4ACAD" fill-opacity="1.000000" fill-rule="nonzero"/>
	<path id="Vector" d="M19.81 10.96C19.69 10.81 19.42 10.77 19.26 10.93L18.41 11.59C18.25 11.74 18.21 11.98 18.37 12.13C18.45 12.21 18.56 12.29 18.68 12.29C18.76 12.29 18.83 12.25 18.91 12.21L19.77 11.51C19.92 11.39 19.96 11.12 19.81 10.96Z" fill="#A4ACAD" fill-opacity="1.000000" fill-rule="nonzero"/>
	<path id="Vector" d="M23.27 20.34C23.15 20.18 22.88 20.14 22.72 20.3L21.87 21C21.71 21.12 21.67 21.39 21.83 21.54C21.91 21.62 22.02 21.66 22.14 21.66C22.22 21.66 22.3 21.62 22.37 21.58L23.23 20.88C23.39 20.77 23.42 20.49 23.27 20.34Z" fill="#A4ACAD" fill-opacity="1.000000" fill-rule="nonzero"/>
</svg>
