<svg width="30.000000" height="30.000000" viewBox="0 0 30 30" fill="none" xmlns="http://www.w3.org/2000/svg" xmlns:xlink="http://www.w3.org/1999/xlink">
	<desc>
			Created with Pixso.
	</desc>
	<defs>
		<clipPath id="clip7_994">
			<rect id="Вок" width="30.000000" height="30.000000" fill="white" fill-opacity="0"/>
		</clipPath>
	</defs>
	<rect id="Вок" width="30.000000" height="30.000000" fill="#FFFFFF" fill-opacity="0"/>
	<g clip-path="url(#clip7_994)">
		<path id="Vector" d="M28.66 9.03C27.28 8.17 25.94 8.03 24.76 8.63C24.45 8.32 23.83 7.82 22.97 7.76C22.21 7.7 21.46 8.01 20.74 8.66C20.67 8.02 20.38 7.44 19.92 7C19.37 6.49 18.64 6.21 17.89 6.21C16.52 6.21 15.33 7.25 15.05 8.58L11.7 6.43C11.63 6.38 11.55 6.35 11.47 6.33C11.38 6.32 11.29 6.32 11.21 6.34C11.13 6.37 11.05 6.41 10.98 6.46C10.91 6.51 10.85 6.58 10.81 6.66C10.77 6.73 10.73 6.81 10.69 6.89C9.62 6.49 8.27 6.77 7.47 7.6C7.13 7.95 6.89 8.37 6.77 8.84C6.65 9.3 6.65 9.79 6.77 10.26L6.56 10.26C6.05 8.38 4.14 7.39 4.06 7.35C3.98 7.31 3.9 7.3 3.81 7.32C3.73 7.34 3.65 7.39 3.6 7.47C3.56 7.54 3.53 7.62 3.54 7.71C3.55 7.8 3.59 7.88 3.66 7.93C3.69 7.98 3.92 8.43 3.39 9.96C2.09 9.23 0.72 8.99 0.45 8.95C0.41 8.94 0.38 8.94 0.35 8.94C0.26 8.94 0.17 8.98 0.11 9.04C0.04 9.1 0 9.19 0 9.28C-0.01 9.37 0.02 9.46 0.08 9.53C0.13 9.6 0.22 9.64 0.31 9.66C0.31 9.66 0.33 9.66 0.36 9.66C0.39 9.69 0.49 9.83 0.49 9.84C0.69 10.12 0.97 10.74 1.16 12.09C1.3 13.12 1.89 13.99 2.54 14.55C2.07 14.65 1.73 14.94 1.68 15.3C1.66 15.49 1.65 15.68 1.65 15.87C1.65 17.92 3.01 19.84 5.49 21.26C6.68 21.94 8.05 22.47 9.54 22.84L9.54 24.14C9.54 24.24 9.58 24.33 9.64 24.39C9.71 24.46 9.8 24.5 9.9 24.5L19.17 24.5C19.26 24.5 19.35 24.46 19.42 24.39C19.49 24.33 19.52 24.24 19.52 24.14L19.52 22.84C21.01 22.47 22.39 21.94 23.57 21.26C26.05 19.84 27.42 17.92 27.42 15.87C27.42 15.68 27.41 15.49 27.38 15.3C27.37 15.2 27.33 15.1 27.27 15.01C28.43 14.58 29.27 13.6 29.71 12.68C30.02 12.05 30.08 11.33 29.88 10.65C29.69 9.98 29.25 9.4 28.66 9.03ZM17.89 6.93C18.98 6.93 19.84 7.63 20.01 8.62C19.81 8.62 19.58 8.62 19.34 8.64C19.2 8.32 18.95 8.06 18.64 7.9C18.33 7.74 17.97 7.69 17.63 7.76C17.29 7.84 16.98 8.03 16.76 8.3C16.54 8.57 16.43 8.91 16.43 9.26C16.43 9.33 16.44 9.4 16.44 9.48L15.71 9C15.81 7.86 16.77 6.93 17.89 6.93ZM18.56 8.75C18.06 8.84 17.58 9.03 17.15 9.29C17.15 9.28 17.15 9.27 17.15 9.26C17.14 9.09 17.19 8.93 17.29 8.79C17.38 8.66 17.51 8.55 17.67 8.49C17.83 8.44 18 8.43 18.16 8.48C18.32 8.52 18.46 8.62 18.56 8.75ZM11.4 7.08L16.2 10.17C16.07 10.35 15.96 10.55 15.87 10.76L12.66 8.69C12.58 8.64 12.5 8.61 12.41 8.6C12.32 8.59 12.23 8.6 12.14 8.63C12.06 8.66 11.98 8.72 11.92 8.78C11.86 8.85 11.81 8.93 11.79 9.02C11.57 9.75 11.77 10.69 12.32 11.59C12.83 12.43 13.63 13.2 14.59 13.77C14.4 14 14.22 14.22 14.14 14.51L13.98 14.51C12.71 13.59 11.75 12.32 11.26 10.93C10.78 9.54 10.83 8.18 11.4 7.08ZM15.11 12.78C15.15 12.8 15.19 12.82 15.23 12.83C15.17 12.96 15.1 13.08 15.03 13.2C13.17 12.11 12.27 10.46 12.44 9.4L15.64 11.46C15.63 11.5 15.62 11.55 15.61 11.59C15.59 11.71 15.57 11.82 15.54 11.92C15.44 11.88 15.32 11.88 15.22 11.92C15.11 11.95 15.03 12.02 14.97 12.12C14.9 12.22 14.88 12.35 14.9 12.48C14.93 12.6 15.01 12.71 15.11 12.78L15.11 12.78ZM10.9 11.92C11.37 12.9 12.03 13.78 12.84 14.51L10.9 14.51L10.9 11.92ZM7.98 8.1C8.58 7.48 9.62 7.26 10.43 7.56C10.38 7.73 10.34 7.91 10.3 8.1C10.11 8.03 9.9 8 9.69 8C9.22 8 8.76 8.19 8.43 8.53C8.1 8.87 7.91 9.32 7.91 9.8C7.91 9.95 7.93 10.11 7.97 10.26L7.52 10.26C7.38 9.89 7.35 9.49 7.44 9.11C7.52 8.73 7.71 8.38 7.98 8.1ZM10.34 10.26L8.73 10.26C8.66 10.11 8.63 9.96 8.63 9.8C8.63 9.51 8.74 9.24 8.94 9.04C9.14 8.83 9.41 8.72 9.69 8.72C9.88 8.71 10.06 8.76 10.22 8.84C10.2 9.32 10.24 9.79 10.34 10.26L10.34 10.26ZM6.69 10.98L10.18 10.98L10.18 14.51L5.9 14.51C5.94 14.21 5.95 13.91 5.93 13.61C6.49 12.71 6.74 11.83 6.69 10.98L6.69 10.98ZM4.45 8.47C4.97 8.88 5.64 9.56 5.88 10.47C6.05 11.11 5.99 11.79 5.7 12.49C5.58 12.13 5.4 11.8 5.18 11.49C4.86 11.05 4.47 10.66 4.02 10.35C4.28 9.6 4.43 8.97 4.45 8.47ZM1.87 11.99C1.74 11.1 1.56 10.39 1.33 9.89C2.32 10.17 3.78 10.76 4.6 11.91C5.12 12.64 5.32 13.52 5.18 14.51L4.93 14.51C4.49 12.11 3.13 11.43 3.07 11.4C3.03 11.38 2.98 11.37 2.94 11.37C2.89 11.36 2.84 11.37 2.8 11.38C2.75 11.4 2.71 11.42 2.68 11.46C2.64 11.49 2.61 11.53 2.59 11.57C2.57 11.61 2.56 11.66 2.56 11.7C2.56 11.75 2.56 11.8 2.58 11.84C2.59 11.89 2.62 11.93 2.65 11.96C2.68 12 2.72 12.03 2.76 12.05C2.77 12.05 3.81 12.57 4.2 14.51L3.91 14.51C3.31 14.44 2.07 13.42 1.87 11.99L1.87 11.99ZM18.81 23.78L10.26 23.78L10.26 23C13.08 23.56 15.98 23.56 18.81 23L18.81 23.78ZM26.68 16.28L8.72 16.28C8.63 16.28 8.54 16.32 8.47 16.39C8.4 16.45 8.36 16.55 8.36 16.64C8.36 16.74 8.4 16.83 8.47 16.89C8.54 16.96 8.63 17 8.72 17L26.53 17C26.12 18.36 24.98 19.63 23.21 20.64C20.9 21.97 17.82 22.7 14.53 22.7C11.25 22.7 8.16 21.97 5.85 20.64C4.08 19.63 2.94 18.36 2.53 17L6.21 17C6.31 17 6.4 16.96 6.47 16.89C6.53 16.83 6.57 16.74 6.57 16.64C6.57 16.55 6.53 16.45 6.47 16.39C6.4 16.32 6.31 16.28 6.21 16.28L2.39 16.28C2.35 15.99 2.35 15.69 2.39 15.4C2.42 15.35 2.62 15.23 2.94 15.23L26.13 15.23C26.45 15.23 26.64 15.35 26.67 15.4C26.69 15.56 26.7 15.71 26.7 15.87C26.7 16.01 26.69 16.15 26.68 16.28ZM16.12 14.51C16.69 14.29 17.33 14.09 18.01 13.91C18.02 13.92 18.03 13.94 18.04 13.95C18.3 14.16 18.58 14.35 18.88 14.51L16.12 14.51ZM29.06 12.37C28.58 13.38 27.55 14.47 26.12 14.51L20.68 14.51C20.05 14.31 19.45 14.03 18.9 13.69C20.06 13.41 21.28 13.18 22.42 13C22.43 13.02 22.45 13.04 22.47 13.06C22.92 13.53 23.82 14.3 24.84 14.3C24.87 14.3 24.9 14.3 24.93 14.3C24.98 14.3 25.02 14.29 25.07 14.27C25.11 14.25 25.15 14.22 25.18 14.18C25.21 14.15 25.24 14.11 25.25 14.06C25.27 14.02 25.28 13.97 25.27 13.92C25.27 13.88 25.26 13.83 25.24 13.79C25.22 13.74 25.19 13.71 25.16 13.67C25.12 13.64 25.08 13.62 25.04 13.6C24.99 13.59 24.94 13.58 24.9 13.58C24.29 13.61 23.69 13.2 23.3 12.86C25.35 12.55 26.93 12.4 26.97 12.39C27.06 12.38 27.15 12.34 27.21 12.26C27.27 12.19 27.3 12.1 27.29 12C27.28 11.91 27.23 11.82 27.16 11.76C27.09 11.7 26.99 11.67 26.9 11.68C26.74 11.69 25.16 11.84 23.13 12.15C23.4 11.66 23.93 10.98 24.86 10.82C24.95 10.81 25.03 10.76 25.09 10.68C25.14 10.6 25.17 10.51 25.15 10.41C25.13 10.32 25.08 10.24 25.01 10.18C24.93 10.13 24.83 10.1 24.74 10.12C23.23 10.37 22.54 11.66 22.31 12.2C22.3 12.23 22.29 12.26 22.28 12.29C21.09 12.48 19.81 12.73 18.59 13.02C18.79 12.45 19.23 11.58 20.11 11.28C20.16 11.27 20.2 11.25 20.24 11.21C20.27 11.18 20.3 11.15 20.32 11.1C20.34 11.06 20.36 11.01 20.36 10.97C20.36 10.92 20.36 10.87 20.34 10.83C20.33 10.78 20.3 10.74 20.27 10.71C20.24 10.67 20.2 10.64 20.16 10.62C20.12 10.6 20.07 10.59 20.02 10.59C19.98 10.58 19.93 10.59 19.88 10.6C18.49 11.08 17.97 12.54 17.8 13.15C17.8 13.18 17.79 13.2 17.79 13.23C16.86 13.48 15.99 13.77 15.27 14.09C15.61 13.66 16.07 13.01 16.32 11.73C16.55 10.5 17.35 9.73 18.7 9.45C19.39 9.32 20.1 9.3 20.79 9.4C20.85 9.41 20.9 9.41 20.96 9.39C21.01 9.37 21.06 9.34 21.1 9.3C21.71 8.71 22.32 8.43 22.92 8.47C23.8 8.54 24.4 9.29 24.4 9.3C24.46 9.37 24.53 9.41 24.62 9.43C24.71 9.45 24.8 9.43 24.87 9.38C25.88 8.77 27.03 8.86 28.28 9.64C28.72 9.92 29.05 10.35 29.2 10.85C29.34 11.36 29.29 11.9 29.06 12.37L29.06 12.37Z" fill="#A4ACAD" fill-opacity="1.000000" fill-rule="nonzero"/>
		<path id="Vector" d="M14.29 10.85C14.24 10.82 14.18 10.79 14.11 10.78C14.05 10.77 13.99 10.77 13.93 10.79C13.86 10.8 13.8 10.83 13.75 10.86C13.7 10.9 13.66 10.95 13.62 11C13.56 11.11 13.53 11.24 13.56 11.36C13.59 11.49 13.66 11.6 13.77 11.67C13.85 11.72 13.94 11.74 14.03 11.74C14.06 11.74 14.1 11.74 14.13 11.73C14.2 11.72 14.26 11.69 14.31 11.66C14.36 11.62 14.4 11.57 14.44 11.52C14.51 11.41 14.53 11.28 14.5 11.15C14.47 11.03 14.4 10.92 14.29 10.85Z" fill="#A4ACAD" fill-opacity="1.000000" fill-rule="nonzero"/>
		<path id="Vector" d="M7.74 19.98C7.7 20.07 7.69 20.17 7.72 20.26C7.75 20.35 7.82 20.42 7.9 20.46C9.23 21.14 10.7 21.5 12.19 21.54L12.2 21.54C12.3 21.54 12.39 21.5 12.46 21.43C12.52 21.37 12.56 21.28 12.56 21.18C12.57 21.09 12.53 21 12.46 20.93C12.4 20.86 12.31 20.82 12.21 20.82C10.82 20.79 9.46 20.45 8.23 19.82C8.18 19.8 8.14 19.79 8.09 19.79C8.04 19.78 8 19.79 7.95 19.8C7.91 19.82 7.87 19.84 7.83 19.87C7.79 19.9 7.76 19.94 7.74 19.98Z" fill="#A4ACAD" fill-opacity="1.000000" fill-rule="nonzero"/>
		<path id="Vector" d="M6.96 19.05C6.84 18.97 6.73 18.88 6.61 18.8C6.54 18.74 6.44 18.71 6.35 18.72C6.25 18.73 6.17 18.78 6.11 18.86C6.05 18.93 6.03 19.03 6.04 19.12C6.05 19.22 6.1 19.3 6.17 19.36C6.29 19.46 6.42 19.55 6.54 19.64C6.58 19.66 6.62 19.68 6.67 19.7C6.71 19.71 6.76 19.71 6.81 19.7C6.85 19.69 6.9 19.68 6.94 19.65C6.98 19.63 7.01 19.59 7.04 19.56C7.07 19.52 7.09 19.47 7.1 19.43C7.11 19.38 7.11 19.33 7.1 19.29C7.1 19.24 7.08 19.2 7.05 19.16C7.03 19.12 7 19.08 6.96 19.05L6.96 19.05Z" fill="#A4ACAD" fill-opacity="1.000000" fill-rule="nonzero"/>
	</g>
</svg>
