<svg width="30.000000" height="30.000000" viewBox="0 0 30 30" fill="none" xmlns="http://www.w3.org/2000/svg" xmlns:xlink="http://www.w3.org/1999/xlink">
	<desc>
			Created with Pixso.
	</desc>
	<defs>
		<clipPath id="clip109_264">
			<rect id="Frame" width="28.000000" height="28.000000" transform="translate(1.000000 1.000000)" fill="white" fill-opacity="0"/>
		</clipPath>
		<clipPath id="clip7_1071">
			<rect id="Вок" width="30.000000" height="30.000000" fill="white" fill-opacity="0"/>
		</clipPath>
	</defs>
	<rect id="Вок" width="30.000000" height="30.000000" fill="#FFFFFF" fill-opacity="0"/>
	<g clip-path="url(#clip7_1071)">
		<rect id="Frame" width="28.000000" height="28.000000" transform="translate(1.000000 1.000000)" fill="#FFFFFF" fill-opacity="0"/>
		<g clip-path="url(#clip109_264)">
			<path id="Shape" d="M27.04 2.23C25.4 0.59 22.74 0.59 21.1 2.23L7.38 15.95C5.99 17.35 5.75 19.52 6.81 21.18L1.41 26.59C1 26.99 0.88 27.6 1.1 28.13C1.32 28.65 1.83 29 2.4 29C2.78 29 3.14 28.85 3.4 28.58L8.81 23.18C10.47 24.24 12.65 24.01 14.04 22.61L27.76 8.89C29.4 7.25 29.4 4.59 27.76 2.95L27.04 2.23ZM2.74 27.92C2.55 28.1 2.25 28.1 2.07 27.92C1.88 27.74 1.88 27.44 2.07 27.25L7.4 21.91L8.08 22.59L2.74 27.92ZM27.1 8.23L13.38 21.95C12.77 22.56 11.94 22.91 11.07 22.91C10.2 22.91 9.37 22.56 8.76 21.95L8.04 21.23C6.77 19.95 6.77 17.89 8.04 16.61L21.76 2.89C23.04 1.61 25.1 1.61 26.38 2.89L27.1 3.61C28.38 4.89 28.38 6.95 27.1 8.23Z" fill="#A4ACAD" fill-opacity="1.000000" fill-rule="nonzero"/>
			<path id="Shape" d="M24.07 2.9C23.45 2.9 22.85 3.14 22.41 3.59L20.08 5.92C19.95 6.04 19.9 6.21 19.94 6.38C19.98 6.54 20.11 6.67 20.28 6.72C20.44 6.76 20.62 6.71 20.74 6.58L23.07 4.25C23.63 3.71 24.51 3.71 25.08 4.25C25.26 4.42 25.55 4.42 25.73 4.24C25.91 4.06 25.91 3.77 25.73 3.59C25.3 3.15 24.7 2.9 24.07 2.9Z" fill="#A4ACAD" fill-opacity="1.000000" fill-rule="nonzero"/>
			<path id="Shape" d="M18.07 9.05C18.2 9.05 18.31 9 18.4 8.91L19.4 7.91C19.52 7.8 19.57 7.62 19.53 7.46C19.49 7.3 19.36 7.17 19.2 7.13C19.03 7.08 18.86 7.13 18.74 7.25L17.74 8.25C17.61 8.39 17.57 8.59 17.64 8.76C17.71 8.94 17.88 9.05 18.07 9.05Z" fill="#A4ACAD" fill-opacity="1.000000" fill-rule="nonzero"/>
			<path id="Shape" d="M16.74 10.58C16.87 10.45 16.91 10.25 16.84 10.07C16.77 9.89 16.6 9.78 16.41 9.78C16.21 9.78 16.04 9.89 15.97 10.07C15.9 10.25 15.94 10.45 16.07 10.58C16.26 10.77 16.55 10.77 16.74 10.58Z" fill="#A4ACAD" fill-opacity="1.000000" fill-rule="nonzero"/>
			<path id="Shape" d="M19.74 12.92L13.08 19.59C12.95 19.71 12.91 19.88 12.95 20.04C12.99 20.21 13.12 20.33 13.28 20.38C13.44 20.42 13.62 20.37 13.74 20.25L20.4 13.58C20.58 13.4 20.58 13.11 20.4 12.93C20.22 12.75 19.93 12.74 19.74 12.92Z" fill="#A4ACAD" fill-opacity="1.000000" fill-rule="nonzero"/>
		</g>
	</g>
</svg>
