<svg width="30.000000" height="30.000000" viewBox="0 0 30 30" fill="none" xmlns="http://www.w3.org/2000/svg" xmlns:xlink="http://www.w3.org/1999/xlink">
	<desc>
			Created with Pixso.
	</desc>
	<defs>
		<clipPath id="clip7_963">
			<rect id="Вок" width="30.000000" height="30.000000" fill="white" fill-opacity="0"/>
		</clipPath>
	</defs>
	<rect id="Вок" width="30.000000" height="30.000000" fill="#FFFFFF" fill-opacity="0"/>
	<g clip-path="url(#clip7_963)">
		<path id="Vector" d="M29.21 14.3L26.87 11.59C26.52 11.17 26.13 10.77 25.72 10.39C25.54 10.23 25.26 10.24 25.09 10.42C24.93 10.6 24.94 10.88 25.12 11.05C25.46 11.36 25.78 11.68 26.08 12.03C26.16 14.16 25.74 16.28 24.85 18.22L21.73 16.81C21.65 16.77 21.56 16.73 21.47 16.7C22.01 13.91 21.71 11.01 20.63 8.4C21.7 8.76 24.27 10.49 25.22 11.13C25.3 11.18 25.38 11.2 25.47 11.2C25.61 11.2 25.75 11.13 25.83 11.01C25.97 10.81 25.92 10.53 25.72 10.39C23.81 9.1 20.05 7.09 17.76 6.88C17.38 6.38 16.79 6.06 16.12 6.06L12.78 6.06C12.04 6.06 11.38 6.46 11.02 7.05C7.95 7.61 5.15 9.22 3.12 11.59L0.78 14.3C-0.11 15.34 -0.26 16.84 0.41 18.04C0.82 18.76 1.47 19.29 2.25 19.55C2.32 19.57 2.38 19.59 2.45 19.61C2.35 20.58 2.62 21.54 3.24 22.31C3.95 23.2 5.01 23.71 6.14 23.71L11.86 23.71C12.14 23.85 12.45 23.93 12.78 23.93L16.12 23.93C16.45 23.93 16.76 23.85 17.04 23.71L23.79 23.71C24.93 23.71 25.98 23.2 26.69 22.31C27.3 21.54 27.58 20.58 27.48 19.62C27.57 19.6 27.66 19.58 27.74 19.55C28.52 19.29 29.17 18.76 29.58 18.04C30.25 16.84 30.1 15.34 29.21 14.3ZM19.52 8.07C20.75 10.64 21.14 13.56 20.63 16.37C19.83 16.08 19.01 15.85 18.17 15.69L18.17 8.11C18.17 8.01 18.16 7.91 18.15 7.82C18.61 7.88 19.07 7.96 19.52 8.07ZM10.73 8.11L10.73 12.38C9.87 11.14 8.83 10.04 7.64 9.12C8.62 8.62 9.65 8.25 10.73 8.01C10.73 8.04 10.73 8.08 10.73 8.11ZM1.19 17.61C0.69 16.73 0.8 15.64 1.46 14.87L2.71 13.41C3.21 13.68 3.69 13.99 4.15 14.32C4.23 14.37 5.48 15.49 5.57 15.49C5.7 15.49 5.91 15.12 6 15C6.14 14.8 6.37 14.99 6.17 14.85C5.73 14.53 3.77 12.99 3.3 12.73L3.79 12.16C4.66 11.15 5.68 10.29 6.8 9.6C8.42 10.77 9.77 12.31 10.73 14.06L10.73 15.94C9.88 16.16 9.05 16.45 8.26 16.81L7.99 16.93C7.45 16.18 6.84 15.48 6.17 14.85C6 14.68 5.72 14.68 5.55 14.86C5.38 15.04 5.39 15.32 5.57 15.49C6.15 16.04 6.69 16.65 7.17 17.3L4.25 18.62C3.12 19.13 1.8 18.7 1.19 17.61ZM3.93 21.76C3.46 21.18 3.25 20.44 3.33 19.71C3.77 19.7 4.21 19.61 4.62 19.42L8.62 17.62C9.3 17.31 10.01 17.06 10.73 16.86L10.73 20.64L10.28 20.64C10.04 20.64 9.84 20.84 9.84 21.09C9.84 21.33 10.04 21.53 10.28 21.53L10.73 21.53L10.73 21.88C10.73 22.22 10.81 22.54 10.96 22.83L6.14 22.83C5.28 22.83 4.47 22.44 3.93 21.76ZM26 21.76C25.46 22.44 24.65 22.83 23.79 22.83L17.93 22.83C18.07 22.57 18.15 22.29 18.16 21.99C18.17 21.99 18.18 21.99 18.18 21.99L18.68 21.99C18.92 21.99 19.12 21.79 19.12 21.55C19.12 21.3 18.92 21.1 18.68 21.1L18.18 21.1C18.18 21.1 18.17 21.1 18.17 21.1L18.17 18.44C18.17 18.19 17.97 18 17.73 18C17.48 18 17.28 18.19 17.28 18.44L17.28 21.88C17.28 22.52 16.76 23.05 16.12 23.05L12.78 23.05C12.14 23.05 11.61 22.52 11.61 21.88L11.61 8.11C11.61 7.47 12.14 6.94 12.78 6.94L16.12 6.94C16.76 6.94 17.28 7.47 17.28 8.11L17.28 18.33C17.28 18.57 17.48 18.77 17.73 18.77C17.97 18.77 18.17 18.57 18.17 18.33L18.17 16.59C19.27 16.81 20.35 17.16 21.37 17.62L25.37 19.42C25.76 19.6 26.18 19.7 26.6 19.71C26.68 20.44 26.47 21.18 26 21.76ZM28.8 17.61C28.19 18.7 26.87 19.13 25.74 18.62L25.66 18.58C26.46 16.84 26.9 14.96 26.97 13.05L28.53 14.87C29.19 15.64 29.3 16.73 28.8 17.61Z" fill="#A4ACAD" fill-opacity="1.000000" fill-rule="nonzero"/>
		<path id="Vector" d="M19.99 18.03L19.56 18.03C19.32 18.03 19.12 18.23 19.12 18.47C19.12 18.72 19.32 18.91 19.56 18.91L19.99 18.91C20.23 18.91 20.43 18.72 20.43 18.47C20.43 18.23 20.23 18.03 19.99 18.03Z" fill="#A4ACAD" fill-opacity="1.000000" fill-rule="nonzero"/>
		<path id="Vector" d="M22.38 19.9L21.66 19.9C21.41 19.9 21.22 20.1 21.22 20.34C21.22 20.59 21.41 20.78 21.66 20.78L22.38 20.78C22.62 20.78 22.82 20.59 22.82 20.34C22.82 20.1 22.62 19.9 22.38 19.9Z" fill="#A4ACAD" fill-opacity="1.000000" fill-rule="nonzero"/>
		<path id="Vector" d="M10.37 19.27C10.37 19.03 10.17 18.83 9.92 18.83L9.14 18.83C8.89 18.83 8.7 19.03 8.7 19.27C8.7 19.52 8.89 19.71 9.14 19.71L9.92 19.71C10.17 19.71 10.37 19.52 10.37 19.27Z" fill="#A4ACAD" fill-opacity="1.000000" fill-rule="nonzero"/>
		<path id="Vector" d="M7.2 20.64L5.79 20.64C5.55 20.64 5.35 20.84 5.35 21.09C5.35 21.33 5.55 21.53 5.79 21.53L7.2 21.53C7.45 21.53 7.65 21.33 7.65 21.09C7.65 20.84 7.45 20.64 7.2 20.64Z" fill="#A4ACAD" fill-opacity="1.000000" fill-rule="nonzero"/>
	</g>
</svg>
