<svg width="30.000000" height="30.000000" viewBox="0 0 30 30" fill="none" xmlns="http://www.w3.org/2000/svg" xmlns:xlink="http://www.w3.org/1999/xlink">
	<desc>
			Created with Pixso.
	</desc>
	<defs>
		<clipPath id="clip109_246">
			<rect id="Вок" width="30.000000" height="30.000000" fill="white" fill-opacity="0"/>
		</clipPath>
	</defs>
	<rect id="Вок" width="30.000000" height="30.000000" fill="#FFFFFF" fill-opacity="0"/>
	<g clip-path="url(#clip109_246)">
		<path id="Vector" d="M22.6 11.27L22.25 11.27C22.09 7.5 19.07 4.49 15.35 4.29L15.35 0.49C15.35 0.25 15.19 0.09 14.96 0.09C14.72 0.09 14.56 0.25 14.56 0.49L14.56 4.29C10.8 4.49 7.82 7.5 7.66 11.27L7.39 11.27C7.15 11.27 7 11.43 7 11.66L7 13.66C7 13.9 7.15 14.05 7.39 14.05L7.66 14.05L9.11 29.54C9.11 29.74 9.31 29.9 9.5 29.9L20.29 29.9C20.49 29.9 20.64 29.74 20.68 29.54L22.13 14.05L22.6 14.05C22.84 14.05 23 13.9 23 13.66L23 11.66C23 11.43 22.8 11.27 22.6 11.27ZM15.35 5.07C18.64 5.27 21.31 7.94 21.47 11.27L15.35 11.27L15.35 5.07ZM14.56 5.07L14.56 11.27L8.45 11.27C8.6 7.94 11.23 5.27 14.56 5.07ZM7.78 12.05L14.56 12.05L14.56 13.27L7.78 13.27L7.78 12.05ZM8.45 14.05L14.56 14.05L14.56 16.6L8.68 16.6L8.45 14.05ZM19.94 29.11L9.86 29.11L8.76 17.35L14.56 17.35L14.56 24.13C14.56 24.37 14.72 24.52 14.96 24.52C15.19 24.52 15.35 24.37 15.35 24.13L15.35 17.35L21.03 17.35L19.94 29.11ZM21.11 16.56L15.35 16.56L15.35 14.05L21.35 14.05L21.11 16.56ZM22.21 13.27L15.35 13.27L15.35 12.05L22.21 12.05L22.21 13.27Z" fill="#A4ACAD" fill-opacity="1.000000" fill-rule="nonzero"/>
		<path id="Vector" d="M11.82 18.52C10.88 18.52 10.09 19.31 10.09 20.25C10.09 21.19 10.88 21.98 11.82 21.98C12.76 21.98 13.54 21.19 13.54 20.25C13.54 19.31 12.76 18.52 11.82 18.52ZM11.82 21.19C11.31 21.19 10.88 20.76 10.88 20.25C10.88 19.74 11.31 19.31 11.82 19.31C12.33 19.31 12.76 19.74 12.76 20.25C12.76 20.76 12.33 21.19 11.82 21.19Z" fill="#A4ACAD" fill-opacity="1.000000" fill-rule="nonzero"/>
		<path id="Vector" d="M17.74 24.29C16.8 24.29 16.01 25.07 16.01 26.01C16.01 26.96 16.76 27.74 17.74 27.74C18.68 27.74 19.47 26.96 19.47 26.01C19.47 25.07 18.68 24.29 17.74 24.29ZM17.74 26.96C17.23 26.96 16.8 26.52 16.8 26.01C16.8 25.5 17.19 25.07 17.74 25.07C18.25 25.07 18.68 25.5 18.68 26.01C18.68 26.52 18.25 26.96 17.74 26.96Z" fill="#A4ACAD" fill-opacity="1.000000" fill-rule="nonzero"/>
		<path id="Vector" d="M17.98 19.07C17.19 19.07 16.52 19.74 16.52 20.52C16.52 21.31 17.19 21.98 17.98 21.98C18.76 21.98 19.43 21.31 19.43 20.52C19.43 19.74 18.76 19.07 17.98 19.07ZM17.98 21.19C17.62 21.19 17.31 20.88 17.31 20.52C17.31 20.17 17.62 19.86 17.98 19.86C18.33 19.86 18.64 20.17 18.64 20.52C18.64 20.88 18.37 21.19 17.98 21.19Z" fill="#A4ACAD" fill-opacity="1.000000" fill-rule="nonzero"/>
		<path id="Vector" d="M12.72 24.56C11.94 24.56 11.27 25.23 11.27 26.01C11.27 26.8 11.94 27.47 12.72 27.47C13.5 27.47 14.17 26.8 14.17 26.01C14.17 25.23 13.5 24.56 12.72 24.56ZM12.72 26.68C12.37 26.68 12.05 26.37 12.05 26.01C12.05 25.66 12.37 25.35 12.72 25.35C13.07 25.35 13.39 25.66 13.39 26.01C13.39 26.41 13.07 26.68 12.72 26.68Z" fill="#A4ACAD" fill-opacity="1.000000" fill-rule="nonzero"/>
	</g>
</svg>
