<svg width="30.000000" height="30.000000" viewBox="0 0 30 30" fill="none" xmlns="http://www.w3.org/2000/svg" xmlns:xlink="http://www.w3.org/1999/xlink">
	<desc>
			Created with Pixso.
	</desc>
	<defs>
		<clipPath id="clip7_944">
			<rect id="Вок" width="30.000000" height="30.000000" fill="white" fill-opacity="0"/>
		</clipPath>
	</defs>
	<rect id="Вок" width="30.000000" height="30.000000" fill="#FFFFFF" fill-opacity="0"/>
	<g clip-path="url(#clip7_944)">
		<path id="Vector" d="M15 9.21C16.3 9.21 17.66 8.97 18.61 8.53C18.68 8.52 18.76 8.48 18.82 8.42C19.47 8.07 19.89 7.61 19.89 7.03C19.89 5.62 17.37 4.86 14.99 4.86C12.62 4.86 10.1 5.62 10.1 7.03C10.1 8.44 12.62 9.21 15 9.21ZM14.43 8.43C14.42 8.41 14.4 8.38 14.38 8.36L12.08 6.07C12.4 5.95 12.79 5.85 13.22 5.77L15.86 8.41C15.59 8.43 15.3 8.44 14.99 8.44C14.8 8.44 14.61 8.44 14.43 8.43ZM19.13 7.03C19.13 7.23 18.95 7.46 18.61 7.67L16.69 5.76C18.23 6.01 19.13 6.59 19.13 7.03ZM15.49 5.63L17.87 8.01C17.57 8.12 17.22 8.22 16.82 8.29C16.82 8.29 16.81 8.28 16.81 8.28L14.18 5.65C14.44 5.63 14.71 5.62 15 5.62C15.17 5.62 15.33 5.63 15.49 5.63ZM11.35 6.42L13.23 8.3C11.73 8.04 10.86 7.47 10.86 7.03C10.86 6.84 11.03 6.62 11.35 6.42Z" fill="#A4ACAD" fill-opacity="1.000000" fill-rule="nonzero"/>
		<path id="Vector" d="M7.66 15.57C10.03 15.57 12.56 14.8 12.56 13.39C12.56 11.98 10.03 11.22 7.66 11.22C5.29 11.22 2.76 11.98 2.76 13.39C2.76 14.8 5.29 15.57 7.66 15.57ZM5 14.44L6.53 13.21L8.11 14.79C7.96 14.8 7.81 14.8 7.66 14.8C6.58 14.8 5.68 14.66 5 14.44ZM11.79 13.39C11.79 13.86 10.8 14.48 9.1 14.71L8.43 14.03L10.38 12.36C11.29 12.65 11.79 13.06 11.79 13.39ZM9.47 12.14L7.89 13.49L6.45 12.05C6.82 12.01 7.23 11.98 7.66 11.98C8.33 11.98 8.94 12.04 9.47 12.14ZM5.52 12.2L5.98 12.67L4.2 14.1L4.23 14.13C3.77 13.89 3.53 13.63 3.53 13.39C3.53 12.99 4.25 12.49 5.52 12.2Z" fill="#A4ACAD" fill-opacity="1.000000" fill-rule="nonzero"/>
		<path id="Vector" d="M22.69 9.36L22.69 7.03C22.69 7.03 22.69 7.03 22.69 7.03C22.69 4.77 19.31 3 15 3C10.68 3 7.3 4.77 7.3 7.03C7.3 7.03 7.3 7.03 7.3 7.03L7.3 7.03L7.3 9.36C3.16 9.46 -0.04 11.19 -0.04 13.39L-0.04 22.96C-0.04 25.22 3.34 27 7.66 27C11.14 27 14.02 25.84 15 24.2C15.97 25.84 18.85 27 22.33 27C26.65 27 30.03 25.22 30.03 22.96L30.03 13.39C30.03 11.19 26.83 9.46 22.69 9.36ZM29.26 13.39C29.26 15.17 26.09 16.67 22.33 16.67C18.57 16.67 15.4 15.17 15.4 13.39C15.4 11.62 18.57 10.12 22.33 10.12C26.09 10.12 29.26 11.62 29.26 13.39ZM21.28 9.39C21.52 9.21 21.74 9.02 21.93 8.82L21.93 9.36C21.71 9.37 21.49 9.38 21.28 9.39ZM15 12.15C14.75 11.75 14.4 11.37 13.94 11.04C14.29 11.06 14.64 11.07 15 11.07C15.35 11.07 15.7 11.06 16.05 11.04C15.59 11.37 15.24 11.75 15 12.15ZM15 3.76C18.75 3.76 21.93 5.26 21.93 7.03C21.93 8.81 18.75 10.31 15 10.31C11.24 10.31 8.06 8.81 8.06 7.03C8.06 5.26 11.24 3.76 15 3.76ZM8.71 9.39C8.5 9.38 8.28 9.37 8.06 9.36L8.06 8.82C8.25 9.02 8.47 9.21 8.71 9.39ZM7.66 10.12C11.42 10.12 14.59 11.62 14.59 13.39C14.59 15.17 11.42 16.67 7.66 16.67C3.9 16.67 0.73 15.17 0.73 13.39C0.73 11.62 3.9 10.12 7.66 10.12ZM7.66 26.23C3.9 26.23 0.73 24.73 0.73 22.96L0.73 15.18C1.96 16.52 4.57 17.43 7.66 17.43C10.75 17.43 13.36 16.52 14.59 15.18L14.59 22.96C14.59 24.73 11.42 26.23 7.66 26.23ZM29.26 22.96C29.26 24.73 26.09 26.23 22.33 26.23C18.57 26.23 15.4 24.73 15.4 22.96L15.4 15.18C16.63 16.52 19.24 17.43 22.33 17.43C25.42 17.43 28.03 16.52 29.26 15.18L29.26 22.96L29.26 22.96Z" fill="#A4ACAD" fill-opacity="1.000000" fill-rule="nonzero"/>
		<path id="Vector" d="M17.43 13.39C17.43 14.8 19.96 15.57 22.33 15.57C24.7 15.57 27.23 14.8 27.23 13.39C27.23 11.98 24.7 11.22 22.33 11.22C19.96 11.22 17.43 11.98 17.43 13.39ZM26.46 13.39C26.46 13.98 24.89 14.8 22.33 14.8C19.77 14.8 18.2 13.98 18.2 13.39C18.2 12.81 19.77 11.98 22.33 11.98C24.89 11.98 26.46 12.81 26.46 13.39Z" fill="#A4ACAD" fill-opacity="1.000000" fill-rule="nonzero"/>
		<path id="Vector" d="M19.74 13.4C19.74 14.16 21.36 14.28 22.33 14.28C23.3 14.28 24.92 14.16 24.92 13.4C24.92 12.63 23.3 12.52 22.33 12.52C21.36 12.52 19.74 12.63 19.74 13.4ZM22.33 13.51C21.74 13.51 21.27 13.46 20.95 13.4C21.27 13.33 21.74 13.28 22.33 13.28C22.92 13.28 23.39 13.33 23.72 13.4C23.39 13.46 22.92 13.51 22.33 13.51Z" fill="#A4ACAD" fill-opacity="1.000000" fill-rule="nonzero"/>
	</g>
</svg>
