<svg width="30.000000" height="30.000000" viewBox="0 0 30 30" fill="none" xmlns="http://www.w3.org/2000/svg" xmlns:xlink="http://www.w3.org/1999/xlink">
	<desc>
			Created with Pixso.
	</desc>
	<defs>
		<clipPath id="clip7_1006">
			<rect id="Вок" width="30.000000" height="30.000000" fill="white" fill-opacity="0"/>
		</clipPath>
	</defs>
	<rect id="Вок" width="30.000000" height="30.000000" fill="#FFFFFF" fill-opacity="0"/>
	<g clip-path="url(#clip7_1006)">
		<path id="Vector" d="M28.88 1.17C28.29 0.81 27.53 1.03 27.17 1.62L21 12.43L0.92 12.43C0.65 12.43 0.47 12.61 0.47 12.88L0.47 14.18C0.47 18.86 2.9 23.14 6.9 25.48C6.59 25.75 6.41 26.16 6.41 26.61L6.41 28.54C6.41 28.81 6.59 29 6.86 29L20.32 29C20.59 29 20.77 28.81 20.77 28.54L20.77 26.61C20.77 26.16 20.59 25.75 20.28 25.48C24.28 23.14 26.72 18.91 26.72 14.18L26.72 12.88C26.72 12.61 26.54 12.43 26.27 12.43L23.88 12.43L29.37 2.88C29.69 2.29 29.51 1.53 28.88 1.17ZM25.77 13.33L25.77 14.18C25.77 18.91 23.11 23.1 18.88 25.17C18.7 25.26 18.61 25.48 18.66 25.66C18.7 25.89 18.88 26.02 19.11 26.02L19.29 26.02C19.6 26.02 19.83 26.29 19.83 26.56L19.83 28.05L7.31 28.05L7.31 26.56C7.31 26.25 7.58 26.02 7.85 26.02L8.03 26.02C8.26 26.02 8.44 25.89 8.48 25.66C8.53 25.44 8.44 25.26 8.26 25.17C4.02 23.1 1.37 18.91 1.37 14.18L1.37 13.33L25.77 13.33ZM28.56 2.43L22.8 12.43L22.03 12.43L27.98 2.11C28.07 1.93 28.29 1.89 28.43 1.98C28.61 2.07 28.65 2.25 28.56 2.43Z" fill="#A4ACAD" fill-opacity="1.000000" fill-rule="nonzero"/>
	</g>
</svg>
