<svg width="30.000000" height="30.000000" viewBox="0 0 30 30" fill="none" xmlns="http://www.w3.org/2000/svg" xmlns:xlink="http://www.w3.org/1999/xlink">
	<desc>
			Created with Pixso.
	</desc>
	<defs>
		<clipPath id="clip7_1113">
			<rect id="Вок" width="30.000000" height="30.000000" fill="white" fill-opacity="0"/>
		</clipPath>
	</defs>
	<rect id="Вок" width="30.000000" height="30.000000" fill="#FFFFFF" fill-opacity="0"/>
	<g clip-path="url(#clip7_1113)">
		<path id="Vector" d="M27.65 15.37C27.53 15.13 27.53 14.86 27.65 14.62L28.73 12.39C29.34 11.15 28.86 9.67 27.64 9.03L25.45 7.87C25.22 7.74 25.05 7.52 25.01 7.25L24.58 4.81C24.34 3.45 23.08 2.54 21.72 2.73L19.26 3.08C19 3.12 18.74 3.03 18.54 2.85L16.76 1.12C15.77 0.16 14.22 0.16 13.23 1.12L11.45 2.85C11.25 3.03 10.99 3.12 10.73 3.08L8.27 2.73C6.91 2.54 5.65 3.45 5.41 4.81L4.98 7.25C4.94 7.52 4.78 7.74 4.54 7.87L2.35 9.03C1.13 9.67 0.65 11.15 1.26 12.39L2.35 14.62C2.46 14.86 2.46 15.13 2.35 15.37L1.26 17.6C0.65 18.84 1.13 20.32 2.35 20.96L4.54 22.12C4.78 22.25 4.94 22.47 4.98 22.74L5.41 25.18C5.63 26.41 6.69 27.28 7.91 27.28C8.03 27.28 8.15 27.27 8.27 27.26L10.73 26.91C10.99 26.87 11.25 26.96 11.45 27.14L13.23 28.87C13.72 29.35 14.36 29.59 15 29.59C15.63 29.59 16.27 29.35 16.76 28.87L18.54 27.14C18.74 26.96 19 26.87 19.26 26.91L21.72 27.26C23.08 27.45 24.34 26.54 24.58 25.18L25.01 22.74C25.05 22.47 25.22 22.25 25.45 22.12L27.64 20.96C28.86 20.32 29.34 18.84 28.73 17.6L27.65 15.37ZM26.85 19.48L24.66 20.64C23.96 21.01 23.49 21.67 23.35 22.45L22.92 24.89C22.84 25.35 22.42 25.66 21.95 25.59L19.5 25.24C18.72 25.13 17.94 25.38 17.37 25.93L15.59 27.66C15.26 27.98 14.73 27.98 14.4 27.66L12.62 25.93C12.14 25.47 11.51 25.22 10.85 25.22C10.73 25.22 10.61 25.23 10.49 25.24L8.04 25.59C7.58 25.66 7.15 25.35 7.07 24.89L6.64 22.45C6.5 21.67 6.03 21.01 5.33 20.64L3.14 19.48C2.73 19.26 2.56 18.76 2.77 18.34L3.86 16.11C4.2 15.4 4.2 14.59 3.86 13.88L2.77 11.65C2.56 11.23 2.73 10.73 3.14 10.51L5.33 9.35C6.03 8.98 6.5 8.32 6.64 7.54L7.07 5.1C7.15 4.64 7.57 4.33 8.04 4.4L10.49 4.75C11.27 4.86 12.05 4.61 12.62 4.06L14.4 2.33C14.73 2.01 15.26 2.01 15.59 2.33L17.37 4.06C17.94 4.61 18.72 4.86 19.5 4.75L21.95 4.4C22.41 4.33 22.84 4.64 22.92 5.1L23.35 7.54C23.49 8.32 23.96 8.98 24.66 9.35L26.85 10.51C27.26 10.73 27.43 11.23 27.22 11.65L26.13 13.88C25.79 14.59 25.79 15.4 26.13 16.11L27.22 18.34C27.43 18.76 27.26 19.26 26.85 19.48Z" fill="#A4ACAD" fill-opacity="1.000000" fill-rule="nonzero"/>
		<path id="Vector" d="M21.14 8.85C20.82 8.52 20.28 8.52 19.95 8.85L8.85 19.95C8.52 20.28 8.52 20.82 8.85 21.14C9.01 21.31 9.23 21.39 9.44 21.39C9.66 21.39 9.87 21.31 10.04 21.14L21.14 10.04C21.47 9.71 21.47 9.17 21.14 8.85Z" fill="#A4ACAD" fill-opacity="1.000000" fill-rule="nonzero"/>
		<path id="Vector" d="M11.63 7.42C9.93 7.42 8.54 8.81 8.54 10.51C8.54 12.21 9.93 13.59 11.63 13.59C13.33 13.59 14.71 12.21 14.71 10.51C14.71 8.81 13.33 7.42 11.63 7.42ZM11.63 11.91C10.86 11.91 10.23 11.28 10.23 10.51C10.23 9.73 10.86 9.1 11.63 9.1C12.4 9.1 13.03 9.73 13.03 10.51C13.03 11.28 12.4 11.91 11.63 11.91Z" fill="#A4ACAD" fill-opacity="1.000000" fill-rule="nonzero"/>
		<path id="Vector" d="M18.36 16.4C16.66 16.4 15.28 17.78 15.28 19.48C15.28 21.18 16.66 22.57 18.36 22.57C20.06 22.57 21.45 21.18 21.45 19.48C21.45 17.78 20.06 16.4 18.36 16.4ZM18.36 20.89C17.59 20.89 16.96 20.26 16.96 19.48C16.96 18.71 17.59 18.08 18.36 18.08C19.13 18.08 19.76 18.71 19.76 19.48C19.76 20.26 19.13 20.89 18.36 20.89Z" fill="#A4ACAD" fill-opacity="1.000000" fill-rule="nonzero"/>
	</g>
</svg>
