<svg width="38.000000" height="38.000000" viewBox="0 0 38 38" fill="none" xmlns="http://www.w3.org/2000/svg" xmlns:xlink="http://www.w3.org/1999/xlink">
	<desc>
			Created with Pixso.
	</desc>
	<defs>
		<clipPath id="clip7_1440">
			<rect id="Frame" width="38.000000" height="38.000000" fill="white" fill-opacity="0"/>
		</clipPath>
	</defs>
	<rect id="Frame" width="38.000000" height="38.000000" fill="#FFFFFF" fill-opacity="0"/>
	<g clip-path="url(#clip7_1440)">
		<path id="Vector" d="M19 0C11.88 0 6.1 5.78 6.1 12.89C6.1 15.75 7.78 20.09 11.39 26.57C13.86 30.98 16.31 34.72 16.42 34.87L18.19 37.56C18.37 37.83 18.67 38 19 38C19.32 38 19.62 37.83 19.8 37.56L21.57 34.87C21.68 34.72 24.11 31.02 26.6 26.57C30.21 20.1 31.89 15.75 31.89 12.89C31.89 5.78 26.11 0 19 0ZM24.91 25.63C22.46 30.02 20.06 33.66 19.96 33.81L19 35.27L18.03 33.81C17.93 33.65 15.51 29.98 13.08 25.63C9.73 19.62 8.03 15.34 8.03 12.89C8.03 6.85 12.95 1.93 19 1.93C25.04 1.93 29.96 6.85 29.96 12.89C29.96 15.34 28.26 19.62 24.91 25.63Z" fill="#F2F2F2" fill-opacity="1.000000" fill-rule="nonzero"/>
		<path id="Vector" d="M19 5.66C15.05 5.66 11.84 8.87 11.84 12.81C11.84 16.75 15.05 19.96 19 19.96C22.94 19.96 26.15 16.75 26.15 12.81C26.15 8.87 22.94 5.66 19 5.66ZM19 18.03C16.12 18.03 13.78 15.69 13.78 12.81C13.78 9.93 16.12 7.59 19 7.59C21.87 7.59 24.21 9.93 24.21 12.81C24.21 15.69 21.87 18.03 19 18.03Z" fill="#F2F2F2" fill-opacity="1.000000" fill-rule="nonzero"/>
	</g>
</svg>
