<svg width="50.000000" height="50.000000" viewBox="0 0 50 50" fill="none" xmlns="http://www.w3.org/2000/svg" xmlns:xlink="http://www.w3.org/1999/xlink">
	<desc>
			Created with Pixso.
	</desc>
	<defs>
		<clipPath id="clip7_1336">
			<rect id="telegram" width="50.000000" height="50.000000" fill="white" fill-opacity="0"/>
		</clipPath>
	</defs>
	<rect id="telegram" width="50.000000" height="50.000000" fill="#FFFFFF" fill-opacity="0"/>
	<g clip-path="url(#clip7_1336)">
		<path id="Vector" d="M25 50C11.19 50 0 38.8 0 25C0 11.19 11.19 0 25 0C38.8 0 50 11.19 50 25C50 38.8 38.8 50 25 50Z" fill="#61A8DE" fill-opacity="1.000000" fill-rule="evenodd"/>
		<path id="Vector" d="M38.21 10.12L4.77 23.14C3.69 23.57 3.75 25.12 4.87 25.45L13.37 27.96L16.54 38.02C16.87 39.07 18.2 39.39 18.97 38.6L23.36 34.12L31.98 40.44C33.04 41.22 34.54 40.64 34.81 39.36L40.52 12.07C40.8 10.73 39.48 9.62 38.21 10.12ZM34.02 16.17L18.48 29.91C18.33 30.04 18.23 30.23 18.21 30.44L17.61 35.75C17.59 35.93 17.35 35.95 17.3 35.78L14.84 27.86C14.72 27.49 14.87 27.1 15.19 26.9L33.53 15.52C33.96 15.26 34.39 15.84 34.02 16.17Z" fill="#FFFFFF" fill-opacity="1.000000" fill-rule="nonzero"/>
	</g>
</svg>
