<svg width="50.000000" height="50.000000" viewBox="0 0 50 50" fill="none" xmlns="http://www.w3.org/2000/svg" xmlns:xlink="http://www.w3.org/1999/xlink">
	<desc>
			Created with Pixso.
	</desc>
	<defs>
		<clipPath id="clip7_1315">
			<rect id="whatsapp" width="50.000000" height="50.000000" fill="white" fill-opacity="0"/>
		</clipPath>
	</defs>
	<rect id="whatsapp" width="50.000000" height="50.000000" fill="#FFFFFF" fill-opacity="0"/>
	<g clip-path="url(#clip7_1315)">
		<path id="Vector" d="M25 50C11.19 50 0 38.8 0 25C0 11.19 11.19 0 25 0C38.8 0 50 11.19 50 25C50 38.8 38.8 50 25 50Z" fill="#1BD741" fill-opacity="1.000000" fill-rule="evenodd"/>
		<path id="Vector" d="M9 42L11.44 33.3C9.87 30.63 9.04 27.59 9.04 24.46C9.04 14.83 16.87 7 26.5 7C36.13 7 43.97 14.83 43.97 24.46C43.97 34.09 36.13 41.92 26.5 41.92C23.5 41.92 20.56 41.15 17.97 39.69L9 42ZM18.42 36.52L18.96 36.84C21.22 38.23 23.83 38.96 26.5 38.96C34.5 38.96 41 32.45 41 24.46C41 16.46 34.5 9.96 26.5 9.96C18.51 9.96 12 16.46 12 24.46C12 27.24 12.79 29.95 14.29 32.28L14.65 32.84L13.24 37.85L18.42 36.52Z" fill="#FFFFFF" fill-opacity="1.000000" fill-rule="nonzero"/>
		<path id="Vector" d="M21.6 16.33L20.46 16.27C20.11 16.25 19.76 16.37 19.49 16.6C18.94 17.08 18.06 18 17.79 19.2C17.39 20.99 18.01 23.19 19.62 25.38C21.23 27.58 24.23 31.09 29.53 32.59C31.24 33.07 32.59 32.75 33.62 32.08C34.44 31.56 35.01 30.71 35.21 29.76L35.39 28.91C35.45 28.65 35.32 28.37 35.07 28.26L31.24 26.49C30.99 26.38 30.69 26.45 30.53 26.67L29.02 28.62C28.91 28.76 28.71 28.82 28.54 28.76C27.51 28.4 24.06 26.95 22.17 23.31C22.09 23.15 22.11 22.96 22.22 22.82L23.66 21.16C23.81 20.99 23.84 20.75 23.76 20.55L22.11 16.69C22.02 16.48 21.82 16.34 21.6 16.33Z" fill="#FFFFFF" fill-opacity="1.000000" fill-rule="nonzero"/>
		<rect id="Rectangle 5" rx="25.000000" width="51.000000" height="50.000000" fill="#FFFFFF" fill-opacity="0.850000"/>
	</g>
</svg>
